<svg width="1024" height="1024" xmlns="http://www.w3.org/2000/svg" version="1.1"><g>
<path id="svg_1" d="m672.5,133.5c0.969,0.809 4.678,1.83 6,2c58.967,19.436 119.301,31.436 181,36c-4.014,-0.166 22.93274,2.00333 38.98274,1.91833c0.092,23.3385 -0.0325,47.98353 0.0173,71.58167c0.189,28.683 -0.478,57.183 -2,85.5c-0.55361,12.25914 -1.33275,24.81841 -2.50912,37.22627c-3.985,78.066 -15.97588,154.50673 -36.99088,229.77373c-24.94862,83.83186 -62.18779,139.78877 -73,155c-105.55432,139.59765 -252.8918,212.67956 -272.5,222c-1.98093,-0.90063 -119.2419,-54.46464 -229.5,-168c-56.876,-62.055 -96.376,-134.055 -118.5,-216c-0.44027,-1.5945 -1.68597,-6.00272 -2,-7c-16.968,-62.139 -27.802,-125.472 -32.5,-190c-5.441,-73.256 -6.941,-146.589 -4.5,-220c13.183,-0.103 26.183,-0.77 39,-2c55.23827,-2.27873 135.94541,-21.95315 136,-22c76.285,-19.814 145.952,-52.9809 209,-99.5c7.62989,0.46046 61.27075,48.02446 164,83.5l-0.00004,0z" fill="#00223f"/>
<path id="svg_2" d="m510.5,141.5c94.181,60.284 197.181,95.284 309,105c1.391,99.09 -8.109,197.09 -28.5,294c-9.482,38.446 -22.148,75.779 -38,112c-22.926,45.263 -52.426,85.763 -88.5,121.5c-35.019,30.999 -72.019,59.333 -111,85c-13.868,8.699 -27.868,17.199 -42,25.5c-52.355,-29.34 -101.022,-63.84 -146,-103.5c-50.217,-45.918 -87.384,-100.752 -111.5,-164.5c-22.968,-65.838 -37.635,-133.505 -44,-203c-5.274,-55.542 -8.107,-111.208 -8.5,-167c106.782,-8.651 205.782,-40.817 297,-96.5c4.242,-2.61 8.242,-5.443 12,-8.5z" fill="#42a2a8"/>
<path id="svg_3" d="m726.5,308.5c-0.833,117.499 -1.333,235.166 -1.5,353c-0.413,2.732 -1.08,5.399 -2,8c-3.017,6.709 -6.517,13.043 -10.5,19c-7.462,10.243 -16.796,18.409 -28,24.5c-28.932,15.088 -59.599,24.755 -92,29c-70.072,11.436 -139.405,8.103 -208,-10c-28.791,-6.973 -53.624,-20.806 -74.5,-41.5c-6.854,-7.993 -11.687,-16.993 -14.5,-27c-0.167,-118.667 0,-237.334 0.5,-356c1.084,-6.421 3.251,-12.421 6.5,-18c11.559,-15.694 26.559,-27.194 45,-34.5c44.328,-17.332 90.328,-26.332 138,-27c54.885,-2.512 108.885,3.155 162,17c23.996,6.088 45.162,17.254 63.5,33.5c8.071,8.474 13.237,18.474 15.5,30z" fill="#00223f"/>
<path id="svg_4" d="m535.5,259.5c37.671,1.339 74.671,7.506 111,18.5c12.17,4.085 23.503,9.752 34,17c3.536,3.201 6.703,6.701 9.5,10.5c2.731,7.489 1.398,14.155 -4,20c-9.275,8.392 -19.775,14.892 -31.5,19.5c-47.766,16.433 -96.933,23.933 -147.5,22.5c-47.125,0.896 -92.958,-6.271 -137.5,-21.5c-13.406,-5.114 -25.24,-12.614 -35.5,-22.5c-4.612,-7.067 -4.612,-14.067 0,-21c7.872,-8.025 17.039,-14.191 27.5,-18.5c34.565,-13.411 70.232,-21.244 107,-23.5c22.32,-0.883 44.653,-1.216 67,-1z" fill="#42a2a8"/>
<path id="svg_5" d="m330.5,361.5c21.203,13.353 44.203,22.519 69,27.5c73.263,14.924 146.596,15.258 220,1c23.414,-5.027 45.747,-13.027 67,-24c2.254,-1.377 4.42,-2.877 6.5,-4.5c0.667,23 0.667,46 0,69c-3.654,7.994 -9.154,14.494 -16.5,19.5c-23.111,13.149 -47.778,22.149 -74,27c-63.077,11.642 -126.077,11.308 -189,-1c-25.376,-5.232 -49.042,-14.565 -71,-28c-7.192,-4.236 -11.525,-10.403 -13,-18.5c-0.331,-22.839 0.003,-45.506 1,-68z" fill="#42a2a8"/>
<path id="svg_6" d="m470.5,516.5c20.654,0.856 41.321,1.189 62,1c46.115,-1.074 90.782,-9.574 134,-25.5c9.573,-4.032 18.406,-9.198 26.5,-15.5c0.962,25.05 0.628,50.05 -1,75c-5.064,8.117 -11.897,14.284 -20.5,18.5c-34.05,16.904 -70.05,26.904 -108,30c-56.796,6.605 -112.796,2.605 -168,-12c-19.734,-5.369 -38.068,-13.702 -55,-25c-4.252,-3.581 -7.752,-7.748 -10.5,-12.5c-1.618,-24.625 -1.951,-49.292 -1,-74c19.041,13.022 39.875,22.189 62.5,27.5c25.954,6.557 52.287,10.724 79,12.5z" fill="#42a2a8"/>
<path id="svg_7" d="m538.5,715.5c-32.114,0.932 -64.114,-0.401 -96,-4c-27.165,-3.674 -53.498,-10.841 -79,-21.5c-12.274,-5.543 -22.774,-13.377 -31.5,-23.5c-1.136,-2.243 -1.97,-4.576 -2.5,-7c0.667,-21 1.333,-42 2,-63c26.736,15.193 55.403,25.359 86,30.5c19.377,3.338 38.71,5.838 58,7.5c15.89698,0.95322 34.94761,1.18231 52,1c37.475,-1.313 74.475,-6.813 111,-16.5c16.834,-4.721 32.834,-11.387 48,-20c2.46,-1.458 4.627,-3.291 6.5,-5.5c0.667,21.667 0.667,43.333 0,65c-1.847,6.523 -5.347,12.023 -10.5,16.5c-17.817,12.837 -37.484,21.837 -59,27c-28.022,7.358 -56.355,11.858 -85,13.5z" fill="#42a2a8"/></g>
</svg>
